<svg width="51" height="20" viewBox="0 0 51 20" fill="none" xmlns="http://www.w3.org/2000/svg">
<rect x="33.363" width="10.0485" height="2.52064" fill="#ffffff"/>
<path d="M9.06777 6.25525H12.1064L7.74137 12.7887L12.3958 19.661H9.45363L6.14969 14.894L2.91809 19.661H0L4.63035 12.7887L0.168815 6.25525H3.20748L6.14969 10.6593L9.06777 6.25525Z" fill="#ffffff"/>
<path d="M28.2543 12.9097C28.2543 16.1765 25.5773 19.9998 21.0435 19.9998C16.5578 19.9998 13.8326 16.2491 13.8326 12.8613C13.8326 9.20742 16.8954 5.89228 21.0435 5.89228C25.095 5.89228 28.2543 9.08643 28.2543 12.9097ZM25.7462 12.9097C25.7462 10.5383 23.8651 8.1911 21.0435 8.1911C18.2218 8.1911 16.3408 10.5383 16.3408 12.9339C16.3408 15.3537 18.246 17.701 21.0435 17.701C23.7445 17.701 25.7462 15.4505 25.7462 12.9097Z" fill="#ffffff"/>
<path d="M44.7693 19.661H42.2612V17.58H42.213C41.2483 19.2255 39.4878 19.9998 37.6791 19.9998C33.1693 19.9998 30.5888 16.5395 30.5888 13.0065C30.5888 9.73978 32.8799 5.89228 37.6791 5.89228C39.536 5.89228 41.2483 6.66662 42.213 8.1427H42.2612V6.25525H44.7693V19.661ZM42.3094 12.9823C42.3094 10.127 40.2595 8.1911 37.6791 8.1911C34.5922 8.1911 33.097 10.8771 33.097 12.9823C33.097 15.4021 35.0021 17.701 37.655 17.701C40.2836 17.701 42.3094 15.5473 42.3094 12.9823Z" fill="#ffffff"/>
<path d="M51 6.25525V19.661H48.4919V6.25525H51ZM51 1.75439V4.70657H48.4919V1.75439H51Z" fill="#ffffff"/>
</svg>
